<mxfile host="app.diagrams.net" agent="Mozilla/5.0 (Macintosh; Intel Mac OS X 10.15; rv:139.0) Gecko/20100101 Firefox/139.0" version="27.1.6">
  <diagram name="Page-1" id="28Lh_vCYJKiKF0xEX3je">
    <mxGraphModel dx="1050" dy="900" grid="1" gridSize="10" guides="1" tooltips="1" connect="1" arrows="1" fold="1" page="1" pageScale="1" pageWidth="850" pageHeight="1100" math="0" shadow="0">
      <root>
        <mxCell id="0" />
        <mxCell id="1" parent="0" />
        <mxCell id="_904vWsISnlF5jVmbeVq-1" value="&lt;div&gt;Student&lt;/div&gt;&lt;div&gt;&lt;br&gt;&lt;/div&gt;" style="shape=umlActor;verticalLabelPosition=bottom;verticalAlign=top;html=1;" vertex="1" parent="1">
          <mxGeometry x="690" y="395" width="30" height="60" as="geometry" />
        </mxCell>
        <mxCell id="_904vWsISnlF5jVmbeVq-3" value="&lt;div&gt;Theia Cloud&lt;/div&gt;" style="shape=rect;html=1;verticalAlign=top;fontStyle=1;whiteSpace=wrap;align=center;fillColor=#eeeeee;strokeColor=#36393d;" vertex="1" parent="1">
          <mxGeometry x="240" y="190" width="370" height="460" as="geometry" />
        </mxCell>
        <mxCell id="_904vWsISnlF5jVmbeVq-28" style="edgeStyle=orthogonalEdgeStyle;rounded=0;orthogonalLoop=1;jettySize=auto;html=1;endArrow=none;startFill=0;" edge="1" parent="1" source="_904vWsISnlF5jVmbeVq-7" target="_904vWsISnlF5jVmbeVq-15">
          <mxGeometry relative="1" as="geometry" />
        </mxCell>
        <mxCell id="_904vWsISnlF5jVmbeVq-29" style="edgeStyle=orthogonalEdgeStyle;rounded=0;orthogonalLoop=1;jettySize=auto;html=1;entryX=0;entryY=0.5;entryDx=0;entryDy=0;endArrow=none;startFill=0;" edge="1" parent="1" source="_904vWsISnlF5jVmbeVq-7" target="_904vWsISnlF5jVmbeVq-14">
          <mxGeometry relative="1" as="geometry" />
        </mxCell>
        <mxCell id="_904vWsISnlF5jVmbeVq-31" style="edgeStyle=orthogonalEdgeStyle;rounded=0;orthogonalLoop=1;jettySize=auto;html=1;entryX=0;entryY=0.5;entryDx=0;entryDy=0;endArrow=none;startFill=0;" edge="1" parent="1" source="_904vWsISnlF5jVmbeVq-7" target="_904vWsISnlF5jVmbeVq-13">
          <mxGeometry relative="1" as="geometry" />
        </mxCell>
        <mxCell id="_904vWsISnlF5jVmbeVq-32" style="edgeStyle=orthogonalEdgeStyle;rounded=0;orthogonalLoop=1;jettySize=auto;html=1;entryX=0;entryY=0.5;entryDx=0;entryDy=0;endArrow=none;startFill=0;" edge="1" parent="1" source="_904vWsISnlF5jVmbeVq-7" target="_904vWsISnlF5jVmbeVq-16">
          <mxGeometry relative="1" as="geometry" />
        </mxCell>
        <mxCell id="_904vWsISnlF5jVmbeVq-33" style="edgeStyle=orthogonalEdgeStyle;rounded=0;orthogonalLoop=1;jettySize=auto;html=1;entryX=0;entryY=0.5;entryDx=0;entryDy=0;endArrow=none;startFill=0;" edge="1" parent="1" source="_904vWsISnlF5jVmbeVq-7" target="_904vWsISnlF5jVmbeVq-17">
          <mxGeometry relative="1" as="geometry" />
        </mxCell>
        <mxCell id="_904vWsISnlF5jVmbeVq-7" value="&lt;div&gt;Student&lt;/div&gt;&lt;div&gt;&lt;br&gt;&lt;/div&gt;" style="shape=umlActor;verticalLabelPosition=bottom;verticalAlign=top;html=1;" vertex="1" parent="1">
          <mxGeometry x="110" y="395" width="30" height="60" as="geometry" />
        </mxCell>
        <mxCell id="_904vWsISnlF5jVmbeVq-13" value="Functional" style="ellipse;whiteSpace=wrap;html=1;" vertex="1" parent="1">
          <mxGeometry x="280" y="240" width="110" height="50" as="geometry" />
        </mxCell>
        <mxCell id="_904vWsISnlF5jVmbeVq-14" value="&lt;div&gt;Responsive&lt;/div&gt;" style="ellipse;whiteSpace=wrap;html=1;" vertex="1" parent="1">
          <mxGeometry x="280" y="320" width="110" height="50" as="geometry" />
        </mxCell>
        <mxCell id="_904vWsISnlF5jVmbeVq-15" value="Reliable" style="ellipse;whiteSpace=wrap;html=1;" vertex="1" parent="1">
          <mxGeometry x="280" y="400" width="110" height="50" as="geometry" />
        </mxCell>
        <mxCell id="_904vWsISnlF5jVmbeVq-16" value="Accessible" style="ellipse;whiteSpace=wrap;html=1;" vertex="1" parent="1">
          <mxGeometry x="280" y="480" width="110" height="50" as="geometry" />
        </mxCell>
        <mxCell id="_904vWsISnlF5jVmbeVq-17" value="Integrated" style="ellipse;whiteSpace=wrap;html=1;" vertex="1" parent="1">
          <mxGeometry x="280" y="560" width="110" height="50" as="geometry" />
        </mxCell>
        <mxCell id="_904vWsISnlF5jVmbeVq-18" value="Scalable" style="ellipse;whiteSpace=wrap;html=1;" vertex="1" parent="1">
          <mxGeometry x="460" y="370" width="110" height="50" as="geometry" />
        </mxCell>
        <mxCell id="_904vWsISnlF5jVmbeVq-19" value="Maintainable" style="ellipse;whiteSpace=wrap;html=1;" vertex="1" parent="1">
          <mxGeometry x="460" y="450" width="110" height="50" as="geometry" />
        </mxCell>
        <mxCell id="_904vWsISnlF5jVmbeVq-34" style="edgeStyle=orthogonalEdgeStyle;rounded=0;orthogonalLoop=1;jettySize=auto;html=1;entryX=1;entryY=0.5;entryDx=0;entryDy=0;endArrow=none;startFill=0;" edge="1" parent="1" source="_904vWsISnlF5jVmbeVq-1" target="_904vWsISnlF5jVmbeVq-18">
          <mxGeometry relative="1" as="geometry" />
        </mxCell>
        <mxCell id="_904vWsISnlF5jVmbeVq-35" style="edgeStyle=orthogonalEdgeStyle;rounded=0;orthogonalLoop=1;jettySize=auto;html=1;endArrow=none;startFill=0;" edge="1" parent="1" source="_904vWsISnlF5jVmbeVq-1" target="_904vWsISnlF5jVmbeVq-19">
          <mxGeometry relative="1" as="geometry" />
        </mxCell>
      </root>
    </mxGraphModel>
  </diagram>
</mxfile>
